<?xml version="1.0"?>
<!-- Generated by SVGo -->
<svg width="500" height="500"
     viewBox="0 -4000 20000 15483"
     xmlns="http://www.w3.org/2000/svg"
     xmlns:xlink="http://www.w3.org/1999/xlink">
<rect x="0" y="-4000" width="20000" height="4000" style="fill: LightSkyBlue" />
<rect x="0" y="0" width="20000" height="11483" style="fill: Navy" />
<polyline points="20000,10983 20000,11483 0,11483 0,193 0,193 10,195 20,204 30,208 40,219 50,230 60,231 70,233 80,234 90,241 100,253 110,260 120,261 130,265 140,268 150,279 160,277 170,297 180,299 190,300 200,306 210,308 220,312 230,313 240,329 250,349 260,361 270,362 280,369 290,371 300,373 310,378 320,380 330,382 340,383 350,382 360,384 370,385 380,386 390,388 400,417 410,419 420,424 430,429 440,435 450,438 460,439 470,454 480,468 490,498 500,504 510,510 520,512 530,514 540,518 550,526 560,528 570,533 580,555 590,561 600,565 610,585 620,590 630,617 640,633 650,635 660,640 670,641 680,652 690,653 700,657 710,659 720,673 730,690 740,696 750,690 760,691 770,712 780,718 790,708 800,711 810,723 820,733 830,734 840,736 850,739 860,738 870,739 880,761 890,764 900,767 910,768 920,774 930,779 940,791 950,797 960,800 970,804 980,807 990,810 1000,811 1010,810 1020,812 1030,814 1040,813 1050,817 1060,827 1070,824 1080,847 1090,848 1100,850 1110,852 1120,880 1130,882 1140,892 1150,896 1160,898 1170,899 1180,900 1190,906 1200,921 1210,933 1220,935 1230,937 1240,935 1250,937 1260,944 1270,951 1280,955 1290,963 1300,964 1310,979 1320,981 1330,985 1340,996 1350,997 1360,998 1370,1005 1380,1009 1390,1011 1400,1015 1410,1019 1420,1021 1430,1022 1440,1006 1450,1009 1460,1017 1470,1018 1480,1019 1490,1022 1500,1028 1510,1022 1520,1023 1530,1043 1540,1046 1550,1047 1560,1053 1570,1054 1580,1078 1590,1079 1600,1091 1610,1111 1620,1115 1630,1119 1640,1127 1650,1128 1660,1129 1670,1130 1680,1147 1690,1160 1700,1161 1710,1176 1720,1177 1730,1171 1740,1183 1750,1189 1760,1190 1770,1191 1780,1193 1790,1195 1800,1201 1810,1203 1820,1215 1830,1219 1840,1229 1850,1222 1860,1206 1870,1212 1880,1232 1890,1235 1900,1242 1910,1257 1920,1258 1930,1261 1940,1267 1950,1269 1960,1267 1970,1265 1980,1267 1990,1273 2000,1275 2010,1278 2020,1282 2030,1285 2040,1288 2050,1306 2060,1330 2070,1345 2080,1354 2090,1355 2100,1358 2110,1360 2120,1358 2130,1367 2140,1368 2150,1366 2160,1363 2170,1365 2180,1366 2190,1367 2200,1369 2210,1371 2220,1374 2230,1377 2240,1378 2250,1381 2260,1382 2270,1387 2280,1400 2290,1421 2300,1425 2310,1445 2320,1459 2330,1461 2340,1463 2350,1483 2360,1487 2370,1488 2380,1490 2390,1491 2400,1493 2410,1531 2420,1544 2430,1546 2440,1548 2450,1549 2460,1556 2470,1559 2480,1563 2490,1544 2500,1558 2510,1577 2520,1590 2530,1592 2540,1599 2550,1596 2560,1599 2570,1617 2580,1621 2590,1623 2600,1624 2610,1627 2620,1628 2630,1631 2640,1634 2650,1666 2660,1696 2670,1697 2680,1700 2690,1699 2700,1710 2710,1715 2720,1717 2730,1720 2740,1730 2750,1726 2760,1727 2770,1741 2780,1739 2790,1745 2800,1751 2810,1754 2820,1763 2830,1765 2840,1767 2850,1792 2860,1797 2870,1798 2880,1814 2890,1838 2900,1852 2910,1858 2920,1884 2930,1889 2940,1898 2950,1899 2960,1898 2970,1907 2980,1908 2990,1921 3000,1922 3010,1942 3020,1944 3030,1954 3040,1956 3050,1961 3060,1967 3070,1971 3080,1972 3090,1973 3100,1995 3110,2021 3120,2027 3130,2039 3140,2045 3150,2043 3160,2044 3170,2048 3180,2055 3190,2056 3200,2058 3210,2083 3220,2086 3230,2093 3240,2106 3250,2107 3260,2110 3270,2112 3280,2118 3290,2121 3300,2133 3310,2139 3320,2146 3330,2150 3340,2155 3350,2160 3360,2164 3370,2165 3380,2166 3390,2160 3400,2159 3410,2158 3420,2164 3430,2175 3440,2179 3450,2186 3460,2191 3470,2192 3480,2196 3490,2187 3500,2207 3510,2214 3520,2222 3530,2223 3540,2225 3550,2229 3560,2231 3570,2228 3580,2229 3590,2230 3600,2233 3610,2236 3620,2238 3630,2241 3640,2245 3650,2225 3660,2229 3670,2231 3680,2235 3690,2237 3700,2240 3710,2243 3720,2245 3730,2246 3740,2249 3750,2250 3760,2251 3770,2256 3780,2259 3790,2271 3800,2272 3810,2273 3820,2268 3830,2269 3840,2270 3850,2275 3860,2272 3870,2273 3880,2275 3890,2276 3900,2282 3910,2285 3920,2289 3930,2300 3940,2306 3950,2337 3960,2338 3970,2359 3980,2353 3990,2354 4000,2357 4010,2364 4020,2370 4030,2359 4040,2360 4050,2361 4060,2373 4070,2384 4080,2398 4090,2399 4100,2395 4110,2403 4120,2406 4130,2408 4140,2414 4150,2415 4160,2420 4170,2419 4180,2427 4190,2443 4200,2455 4210,2457 4220,2477 4230,2479 4240,2487 4250,2488 4260,2491 4270,2493 4280,2496 4290,2505 4300,2511 4310,2513 4320,2514 4330,2517 4340,2546 4350,2530 4360,2532 4370,2533 4380,2537 4390,2541 4400,2542 4410,2541 4420,2567 4430,2576 4440,2592 4450,2611 4460,2616 4470,2622 4480,2640 4490,2665 4500,2679 4510,2687 4520,2693 4530,2699 4540,2706 4550,2715 4560,2721 4570,2742 4580,2739 4590,2756 4600,2762 4610,2771 4620,2772 4630,2773 4640,2770 4650,2788 4660,2789 4670,2798 4680,2799 4690,2800 4700,2801 4710,2800 4720,2803 4730,2807 4740,2808 4750,2812 4760,2815 4770,2848 4780,2854 4790,2855 4800,2857 4810,2858 4820,2868 4830,2870 4840,2884 4850,2888 4860,2890 4870,2900 4880,2901 4890,2909 4900,2912 4910,2918 4920,2919 4930,2925 4940,2939 4950,2942 4960,2956 4970,2963 4980,2967 4990,2968 5000,2972 5010,2986 5020,2998 5030,3001 5040,3023 5050,3037 5060,3047 5070,3050 5080,3054 5090,3062 5100,3065 5110,3064 5120,3066 5130,3067 5140,3068 5150,3082 5160,3084 5170,3090 5180,3097 5190,3099 5200,3098 5210,3094 5220,3078 5230,3081 5240,3083 5250,3085 5260,3068 5270,3076 5280,3077 5290,3078 5300,3080 5310,3086 5320,3090 5330,3102 5340,3107 5350,3111 5360,3114 5370,3119 5380,3124 5390,3125 5400,3126 5410,3127 5420,3131 5430,3135 5440,3137 5450,3138 5460,3139 5470,3143 5480,3173 5490,3190 5500,3191 5510,3192 5520,3194 5530,3198 5540,3199 5550,3200 5560,3194 5570,3196 5580,3220 5590,3222 5600,3223 5610,3210 5620,3213 5630,3214 5640,3218 5650,3232 5660,3243 5670,3251 5680,3266 5690,3267 5700,3266 5710,3270 5720,3273 5730,3275 5740,3278 5750,3283 5760,3300 5770,3306 5780,3307 5790,3326 5800,3329 5810,3332 5820,3333 5830,3334 5840,3340 5850,3343 5860,3345 5870,3359 5880,3361 5890,3362 5900,3373 5910,3378 5920,3379 5930,3380 5940,3383 5950,3386 5960,3409 5970,3422 5980,3431 5990,3433 6000,3434 6010,3438 6020,3454 6030,3479 6040,3481 6050,3490 6060,3503 6070,3511 6080,3516 6090,3503 6100,3505 6110,3530 6120,3527 6130,3529 6140,3532 6150,3553 6160,3556 6170,3557 6180,3562 6190,3571 6200,3572 6210,3574 6220,3575 6230,3584 6240,3602 6250,3603 6260,3606 6270,3597 6280,3624 6290,3644 6300,3669 6310,3670 6320,3676 6330,3690 6340,3713 6350,3714 6360,3741 6370,3743 6380,3725 6390,3745 6400,3749 6410,3758 6420,3759 6430,3775 6440,3796 6450,3798 6460,3799 6470,3805 6480,3817 6490,3818 6500,3829 6510,3869 6520,3886 6530,3881 6540,3882 6550,3887 6560,3888 6570,3907 6580,3902 6590,3901 6600,3922 6610,3920 6620,3897 6630,3890 6640,3920 6650,3937 6660,3947 6670,3949 6680,3953 6690,3967 6700,3976 6710,3977 6720,3988 6730,3998 6740,3999 6750,4004 6760,4009 6770,3973 6780,3975 6790,3988 6800,3990 6810,3994 6820,4001 6830,4005 6840,4016 6850,4017 6860,4018 6870,4027 6880,4028 6890,4023 6900,4029 6910,4000 6920,4001 6930,4002 6940,4009 6950,4010 6960,4013 6970,4014 6980,4029 6990,4032 7000,4034 7010,4039 7020,4040 7030,4050 7040,4055 7050,4050 7060,4055 7070,4058 7080,4059 7090,4061 7100,4064 7110,4080 7120,4082 7130,4081 7140,4082 7150,4084 7160,4085 7170,4088 7180,4090 7190,4091 7200,4109 7210,4118 7220,4119 7230,4140 7240,4145 7250,4150 7260,4151 7270,4147 7280,4150 7290,4156 7300,4175 7310,4177 7320,4178 7330,4181 7340,4182 7350,4183 7360,4191 7370,4190 7380,4191 7390,4223 7400,4225 7410,4233 7420,4263 7430,4270 7440,4277 7450,4280 7460,4302 7470,4304 7480,4316 7490,4319 7500,4320 7510,4312 7520,4320 7530,4321 7540,4356 7550,4354 7560,4355 7570,4361 7580,4374 7590,4402 7600,4384 7610,4389 7620,4390 7630,4392 7640,4390 7650,4402 7660,4408 7670,4409 7680,4449 7690,4453 7700,4454 7710,4462 7720,4464 7730,4465 7740,4467 7750,4469 7760,4470 7770,4472 7780,4474 7790,4473 7800,4474 7810,4478 7820,4490 7830,4493 7840,4495 7850,4503 7860,4506 7870,4509 7880,4512 7890,4524 7900,4525 7910,4526 7920,4541 7930,4557 7940,4558 7950,4559 7960,4560 7970,4561 7980,4568 7990,4583 8000,4584 8010,4587 8020,4589 8030,4598 8040,4603 8050,4606 8060,4607 8070,4610 8080,4611 8090,4612 8100,4627 8110,4630 8120,4653 8130,4656 8140,4657 8150,4659 8160,4660 8170,4682 8180,4684 8190,4683 8200,4684 8210,4685 8220,4686 8230,4691 8240,4692 8250,4701 8260,4702 8270,4706 8280,4713 8290,4714 8300,4745 8310,4772 8320,4773 8330,4781 8340,4783 8350,4802 8360,4807 8370,4812 8380,4815 8390,4821 8400,4823 8410,4825 8420,4831 8430,4832 8440,4847 8450,4848 8460,4849 8470,4850 8480,4858 8490,4857 8500,4858 8510,4874 8520,4852 8530,4858 8540,4869 8550,4882 8560,4884 8570,4886 8580,4896 8590,4887 8600,4888 8610,4893 8620,4903 8630,4907 8640,4909 8650,4905 8660,4915 8670,4940 8680,4944 8690,4961 8700,4967 8710,4968 8720,4960 8730,4983 8740,4987 8750,4986 8760,4988 8770,4991 8780,4993 8790,4983 8800,4985 8810,4987 8820,4989 8830,4993 8840,4994 8850,4967 8860,4980 8870,4975 8880,4980 8890,4999 8900,5000 8910,5001 8920,5003 8930,5005 8940,5007 8950,5016 8960,5024 8970,5026 8980,5027 8990,5028 9000,5029 9010,5030 9020,5045 9030,5055 9040,5056 9050,5066 9060,5064 9070,5081 9080,5083 9090,5084 9100,5090 9110,5061 9120,5063 9130,5069 9140,5091 9150,5102 9160,5103 9170,5106 9180,5116 9190,5123 9200,5141 9210,5146 9220,5149 9230,5150 9240,5167 9250,5168 9260,5170 9270,5171 9280,5182 9290,5181 9300,5185 9310,5186 9320,5191 9330,5195 9340,5213 9350,5232 9360,5233 9370,5242 9380,5251 9390,5266 9400,5270 9410,5268 9420,5269 9430,5284 9440,5290 9450,5294 9460,5300 9470,5302 9480,5303 9490,5304 9500,5332 9510,5335 9520,5329 9530,5332 9540,5334 9550,5343 9560,5346 9570,5356 9580,5357 9590,5363 9600,5365 9610,5366 9620,5367 9630,5373 9640,5377 9650,5384 9660,5394 9670,5395 9680,5392 9690,5403 9700,5405 9710,5394 9720,5399 9730,5401 9740,5412 9750,5413 9760,5416 9770,5418 9780,5424 9790,5429 9800,5402 9810,5408 9820,5418 9830,5420 9840,5428 9850,5430 9860,5437 9870,5438 9880,5442 9890,5444 9900,5474 9910,5486 9920,5488 9930,5501 9940,5514 9950,5520 9960,5519 9970,5522 9980,5547 9990,5551 10000,5553 10010,5557 10020,5558 10030,5581 10040,5583 10050,5587 10060,5572 10070,5575 10080,5574 10090,5575 10100,5578 10110,5593 10120,5595 10130,5596 10140,5597 10150,5606 10160,5612 10170,5613 10180,5623 10190,5624 10200,5636 10210,5637 10220,5646 10230,5671 10240,5675 10250,5680 10260,5691 10270,5693 10280,5720 10290,5721 10300,5733 10310,5738 10320,5750 10330,5729 10340,5730 10350,5731 10360,5732 10370,5734 10380,5729 10390,5748 10400,5750 10410,5751 10420,5753 10430,5756 10440,5761 10450,5768 10460,5771 10470,5775 10480,5777 10490,5791 10500,5793 10510,5795 10520,5798 10530,5795 10540,5808 10550,5809 10560,5810 10570,5812 10580,5813 10590,5820 10600,5821 10610,5824 10620,5854 10630,5868 10640,5869 10650,5874 10660,5880 10670,5886 10680,5887 10690,5908 10700,5909 10710,5918 10720,5926 10730,5931 10740,5941 10750,5957 10760,5967 10770,5960 10780,5961 10790,5958 10800,5971 10810,5973 10820,5975 10830,5976 10840,5978 10850,5979 10860,5986 10870,5991 10880,5994 10890,5977 10900,5982 10910,5983 10920,5987 10930,5989 10940,6013 10950,6012 10960,6019 10970,6022 10980,6033 10990,6034 11000,6037 11010,6038 11020,6066 11030,6068 11040,6073 11050,6075 11060,6077 11070,6082 11080,6094 11090,6108 11100,6109 11110,6111 11120,6113 11130,6116 11140,6117 11150,6121 11160,6122 11170,6124 11180,6129 11190,6132 11200,6140 11210,6141 11220,6153 11230,6164 11240,6185 11250,6183 11260,6197 11270,6198 11280,6196 11290,6203 11300,6204 11310,6224 11320,6227 11330,6230 11340,6231 11350,6240 11360,6257 11370,6259 11380,6261 11390,6280 11400,6288 11410,6290 11420,6291 11430,6293 11440,6304 11450,6306 11460,6308 11470,6310 11480,6316 11490,6319 11500,6334 11510,6335 11520,6336 11530,6337 11540,6345 11550,6346 11560,6347 11570,6350 11580,6353 11590,6356 11600,6364 11610,6369 11620,6374 11630,6380 11640,6384 11650,6403 11660,6410 11670,6411 11680,6415 11690,6416 11700,6417 11710,6419 11720,6420 11730,6433 11740,6437 11750,6443 11760,6454 11770,6455 11780,6458 11790,6481 11800,6492 11810,6496 11820,6517 11830,6527 11840,6532 11850,6547 11860,6548 11870,6552 11880,6560 11890,6553 11900,6568 11910,6572 11920,6574 11930,6575 11940,6571 11950,6576 11960,6580 11970,6596 11980,6597 11990,6624 12000,6628 12010,6629 12020,6642 12030,6645 12040,6629 12050,6634 12060,6640 12070,6645 12080,6646 12090,6655 12100,6661 12110,6673 12120,6680 12130,6683 12140,6674 12150,6679 12160,6690 12170,6691 12180,6692 12190,6707 12200,6713 12210,6714 12220,6721 12230,6741 12240,6746 12250,6762 12260,6766 12270,6767 12280,6773 12290,6784 12300,6785 12310,6786 12320,6790 12330,6791 12340,6792 12350,6824 12360,6828 12370,6833 12380,6835 12390,6836 12400,6837 12410,6838 12420,6826 12430,6829 12440,6864 12450,6876 12460,6877 12470,6878 12480,6880 12490,6882 12500,6883 12510,6889 12520,6900 12530,6901 12540,6938 12550,6939 12560,6943 12570,6949 12580,6955 12590,6959 12600,6961 12610,6962 12620,6965 12630,6967 12640,6968 12650,6969 12660,6983 12670,6989 12680,6997 12690,6998 12700,7002 12710,6981 12720,6995 12730,6997 12740,7005 12750,7023 12760,7026 12770,7036 12780,7041 12790,7043 12800,7052 12810,7067 12820,7068 12830,7069 12840,7079 12850,7088 12860,7098 12870,7111 12880,7109 12890,7119 12900,7120 12910,7121 12920,7129 12930,7130 12940,7142 12950,7144 12960,7141 12970,7145 12980,7150 12990,7151 13000,7173 13010,7179 13020,7180 13030,7182 13040,7191 13050,7205 13060,7207 13070,7209 13080,7218 13090,7229 13100,7239 13110,7241 13120,7243 13130,7271 13140,7265 13150,7267 13160,7269 13170,7272 13180,7274 13190,7276 13200,7305 13210,7306 13220,7307 13230,7308 13240,7311 13250,7313 13260,7316 13270,7318 13280,7320 13290,7322 13300,7340 13310,7343 13320,7344 13330,7354 13340,7360 13350,7367 13360,7370 13370,7371 13380,7372 13390,7389 13400,7391 13410,7392 13420,7399 13430,7418 13440,7400 13450,7403 13460,7404 13470,7405 13480,7406 13490,7411 13500,7395 13510,7402 13520,7417 13530,7419 13540,7420 13550,7424 13560,7426 13570,7427 13580,7414 13590,7412 13600,7413 13610,7417 13620,7420 13630,7421 13640,7422 13650,7449 13660,7454 13670,7459 13680,7462 13690,7464 13700,7463 13710,7464 13720,7466 13730,7481 13740,7486 13750,7485 13760,7487 13770,7488 13780,7489 13790,7494 13800,7509 13810,7526 13820,7529 13830,7530 13840,7531 13850,7538 13860,7541 13870,7547 13880,7550 13890,7554 13900,7561 13910,7562 13920,7563 13930,7564 13940,7566 13950,7574 13960,7576 13970,7577 13980,7578 13990,7581 14000,7609 14010,7623 14020,7626 14030,7627 14040,7630 14050,7631 14060,7653 14070,7654 14080,7657 14090,7658 14100,7659 14110,7662 14120,7664 14130,7674 14140,7675 14150,7677 14160,7676 14170,7694 14180,7696 14190,7711 14200,7734 14210,7735 14220,7742 14230,7746 14240,7749 14250,7753 14260,7759 14270,7760 14280,7767 14290,7781 14300,7805 14310,7807 14320,7808 14330,7826 14340,7843 14350,7844 14360,7845 14370,7853 14380,7870 14390,7871 14400,7872 14410,7875 14420,7876 14430,7887 14440,7895 14450,7896 14460,7913 14470,7914 14480,7916 14490,7929 14500,7933 14510,7935 14520,7928 14530,7929 14540,7930 14550,7933 14560,7949 14570,7976 14580,7977 14590,7978 14600,7998 14610,7999 14620,8002 14630,8010 14640,8011 14650,8012 14660,8015 14670,8016 14680,8023 14690,8028 14700,8029 14710,8031 14720,8035 14730,8036 14740,8037 14750,8056 14760,8057 14770,8062 14780,8067 14790,8081 14800,8082 14810,8096 14820,8099 14830,8116 14840,8121 14850,8125 14860,8126 14870,8128 14880,8129 14890,8132 14900,8119 14910,8129 14920,8151 14930,8181 14940,8161 14950,8163 14960,8184 14970,8186 14980,8191 14990,8192 15000,8197 15010,8186 15020,8184 15030,8194 15040,8216 15050,8219 15060,8220 15070,8221 15080,8223 15090,8239 15100,8240 15110,8241 15120,8246 15130,8273 15140,8274 15150,8283 15160,8284 15170,8285 15180,8293 15190,8294 15200,8300 15210,8303 15220,8305 15230,8336 15240,8340 15250,8344 15260,8347 15270,8348 15280,8349 15290,8356 15300,8363 15310,8361 15320,8362 15330,8364 15340,8365 15350,8383 15360,8389 15370,8390 15380,8405 15390,8406 15400,8404 15410,8410 15420,8411 15430,8412 15440,8413 15450,8414 15460,8419 15470,8422 15480,8425 15490,8428 15500,8448 15510,8449 15520,8453 15530,8464 15540,8466 15550,8468 15560,8469 15570,8470 15580,8478 15590,8483 15600,8477 15610,8488 15620,8489 15630,8493 15640,8510 15650,8520 15660,8533 15670,8545 15680,8547 15690,8562 15700,8560 15710,8555 15720,8557 15730,8558 15740,8559 15750,8581 15760,8577 15770,8578 15780,8579 15790,8582 15800,8590 15810,8591 15820,8569 15830,8570 15840,8569 15850,8570 15860,8573 15870,8578 15880,8561 15890,8558 15900,8563 15910,8564 15920,8575 15930,8580 15940,8582 15950,8593 15960,8596 15970,8585 15980,8588 15990,8598 16000,8612 16010,8613 16020,8622 16030,8629 16040,8639 16050,8640 16060,8647 16070,8655 16080,8656 16090,8657 16100,8671 16110,8672 16120,8683 16130,8690 16140,8691 16150,8694 16160,8693 16170,8698 16180,8706 16190,8713 16200,8714 16210,8716 16220,8718 16230,8736 16240,8733 16250,8741 16260,8731 16270,8736 16280,8737 16290,8738 16300,8746 16310,8747 16320,8746 16330,8749 16340,8761 16350,8762 16360,8780 16370,8784 16380,8785 16390,8791 16400,8793 16410,8797 16420,8807 16430,8818 16440,8836 16450,8837 16460,8838 16470,8845 16480,8846 16490,8849 16500,8857 16510,8858 16520,8877 16530,8876 16540,8875 16550,8883 16560,8887 16570,8888 16580,8892 16590,8895 16600,8901 16610,8915 16620,8916 16630,8915 16640,8921 16650,8929 16660,8935 16670,8944 16680,8981 16690,8985 16700,8990 16710,8991 16720,9001 16730,8995 16740,8998 16750,9001 16760,9002 16770,9003 16780,9026 16790,9036 16800,9047 16810,9070 16820,9080 16830,9083 16840,9089 16850,9098 16860,9118 16870,9135 16880,9123 16890,9127 16900,9131 16910,9117 16920,9123 16930,9124 16940,9131 16950,9136 16960,9139 16970,9141 16980,9144 16990,9149 17000,9156 17010,9157 17020,9160 17030,9163 17040,9168 17050,9170 17060,9177 17070,9179 17080,9199 17090,9200 17100,9211 17110,9212 17120,9222 17130,9224 17140,9211 17150,9224 17160,9246 17170,9252 17180,9277 17190,9294 17200,9301 17210,9302 17220,9310 17230,9311 17240,9313 17250,9316 17260,9319 17270,9320 17280,9321 17290,9322 17300,9323 17310,9324 17320,9337 17330,9340 17340,9357 17350,9378 17360,9379 17370,9381 17380,9397 17390,9398 17400,9399 17410,9400 17420,9405 17430,9407 17440,9421 17450,9437 17460,9438 17470,9442 17480,9440 17490,9453 17500,9458 17510,9459 17520,9463 17530,9464 17540,9465 17550,9464 17560,9465 17570,9468 17580,9478 17590,9496 17600,9498 17610,9499 17620,9504 17630,9509 17640,9525 17650,9522 17660,9523 17670,9527 17680,9531 17690,9533 17700,9537 17710,9533 17720,9546 17730,9547 17740,9570 17750,9576 17760,9577 17770,9586 17780,9604 17790,9607 17800,9618 17810,9621 17820,9643 17830,9657 17840,9665 17850,9666 17860,9667 17870,9668 17880,9678 17890,9679 17900,9680 17910,9684 17920,9694 17930,9697 17940,9694 17950,9700 17960,9705 17970,9706 17980,9708 17990,9728 18000,9729 18010,9730 18020,9732 18030,9737 18040,9744 18050,9745 18060,9758 18070,9774 18080,9776 18090,9774 18100,9771 18110,9776 18120,9777 18130,9779 18140,9780 18150,9781 18160,9799 18170,9802 18180,9803 18190,9806 18200,9824 18210,9825 18220,9828 18230,9837 18240,9829 18250,9833 18260,9836 18270,9837 18280,9832 18290,9834 18300,9835 18310,9840 18320,9848 18330,9874 18340,9890 18350,9917 18360,9922 18370,9926 18380,9928 18390,9929 18400,9937 18410,9940 18420,9947 18430,9950 18440,9949 18450,9951 18460,9952 18470,9963 18480,9962 18490,9963 18500,9997 18510,10011 18520,10017 18530,10038 18540,10039 18550,10040 18560,10086 18570,10087 18580,10088 18590,10089 18600,10091 18610,10092 18620,10103 18630,10104 18640,10113 18650,10115 18660,10132 18670,10146 18680,10148 18690,10154 18700,10158 18710,10166 18720,10168 18730,10166 18740,10167 18750,10176 18760,10191 18770,10185 18780,10191 18790,10196 18800,10206 18810,10210 18820,10212 18830,10213 18840,10216 18850,10238 18860,10254 18870,10258 18880,10260 18890,10261 18900,10267 18910,10291 18920,10305 18930,10308 18940,10313 18950,10315 18960,10326 18970,10331 18980,10339 18990,10346 19000,10348 19010,10358 19020,10381 19030,10385 19040,10386 19050,10392 19060,10393 19070,10394 19080,10397 19090,10408 19100,10431 19110,10433 19120,10437 19130,10438 19140,10443 19150,10447 19160,10449 19170,10452 19180,10454 19190,10456 19200,10460 19210,10461 19220,10462 19230,10463 19240,10462 19250,10463 19260,10480 19270,10481 19280,10489 19290,10488 19300,10491 19310,10493 19320,10517 19330,10519 19340,10537 19350,10550 19360,10560 19370,10573 19380,10588 19390,10591 19400,10597 19410,10605 19420,10609 19430,10610 19440,10615 19450,10618 19460,10620 19470,10619 19480,10625 19490,10640 19500,10642 19510,10645 19520,10651 19530,10660 19540,10659 19550,10673 19560,10691 19570,10709 19580,10711 19590,10732 19600,10739 19610,10743 19620,10751 19630,10755 19640,10757 19650,10758 19660,10761 19670,10777 19680,10779 19690,10776 19700,10783 19710,10789 19720,10803 19730,10806 19740,10825 19750,10838 19760,10851 19770,10852 19780,10853 19790,10854 19800,10865 19810,10866 19820,10876 19830,10877 19840,10885 19850,10887 19860,10899 19870,10898 19880,10897 19890,10902 19900,10907 19910,10909 19920,10913 19930,10924 19940,10950 19950,10947 19960,10949 19970,10954 19980,10965 19990,10983" style="fill: DarkSlateGray" />
</svg>
